#tb 0: 1/240000
#tb 1: 1/240000
0,          0,          0,    10010,  1626280, 0x5768c7d6
1,          0,          0,    18140,    14816, 0xd185e8c7
0,      10010,      10010,    10010,  1626092, 0x070bd882
1,      18140,      18140,    40920,    32736, 0x791b737a
0,      20020,      20020,    10010,   893932, 0x8c7cd0a6, F=0x3
